<svg id="Layer_1" data-name="Layer 1" xmlns="http://www.w3.org/2000/svg" viewBox="0 0 263.16 326.16"><defs><style>.cls-1{fill:#7f7f7f;}.cls-2{fill:#fff;}</style></defs><path class="cls-1" d="M258.9,177.39c0,40.25.12,80.51,0,120.77-.08,23.34-10.8,29.5-31.06,18-27.59-15.68-55.31-31.15-82.49-47.51-9.51-5.73-16.75-6.54-26.75-.4-27.47,16.83-55.73,32.37-83.77,48.25-19.48,11-30.44,4.86-30.48-17.48Q4.1,177.49,4.36,56C4.48,23.27,23.7,4.63,56.69,4.5q75.18-.3,150.34,0c32.57.16,51.55,19.23,51.8,52.11C259.13,96.87,258.9,137.13,258.9,177.39Z"/><path class="cls-2" d="M115.66,148.74c-10.74,0-19.55.16-28.36,0-10.55-.24-19-3.95-19-16.08s8-16,18.86-15.93c8.83,0,17.66,0,28.46,0,0-10.91-.07-20.68,0-30.44s4.81-16.59,14.83-16.93c10.82-.37,16.07,6.39,16.26,17,.16,9.35,0,18.72,0,30.39,10.16,0,19.34,0,28.51,0,10.88,0,18.82,4,18.81,16s-8.51,15.77-19,16c-8.79.19-17.6,0-28.27,0,0,10.86,0,20.14,0,29.42.06,10.63-5,17.71-15.65,17.68s-15.62-7.17-15.54-17.77C115.72,168.79,115.66,159.51,115.66,148.74Z"/></svg>