<svg id="Layer_1" data-name="Layer 1" xmlns="http://www.w3.org/2000/svg" viewBox="0 0 263.16 326.16"><path d="M258.57,178.51c0,40.26.11,80.51,0,120.77-.09,23.34-10.81,29.5-31.07,18-27.59-15.68-55.31-31.15-82.49-47.51-9.51-5.73-16.74-6.54-26.75-.4-27.47,16.83-55.73,32.37-83.77,48.25C15,328.64,4,322.46,4,300.12q-.23-121.51,0-243C4.14,24.39,23.36,5.75,56.35,5.62q75.18-.3,150.35,0c32.56.16,51.54,19.23,51.79,52.11C258.79,98,258.56,138.25,258.57,178.51ZM225.9,279.66c.3-5.54.63-8.88.63-12.22q0-103.5,0-207c0-18.7-4.84-23.47-24-23.52q-71.35-.15-142.72,0C40.75,37,36,41.74,36,60.5q-.1,84.89,0,169.77v50c26.92-15.43,52.11-28.93,76.26-44.09,13.54-8.51,24.65-8.47,38.16-.05C174.56,251.17,199.73,264.69,225.9,279.66Z"/><path d="M115.66,148.74c-10.74,0-19.55.16-28.36,0-10.55-.24-19-3.95-19-16.08s8-16,18.86-15.93c8.83,0,17.66,0,28.46,0,0-10.91-.07-20.68,0-30.44s4.81-16.59,14.83-16.93c10.82-.37,16.07,6.39,16.26,17,.16,9.35,0,18.72,0,30.39,10.16,0,19.34,0,28.51,0,10.88,0,18.82,4,18.81,16s-8.51,15.77-19,16c-8.79.19-17.6,0-28.27,0,0,10.86,0,20.14,0,29.42.06,10.63-5,17.71-15.65,17.68s-15.62-7.17-15.54-17.77C115.72,168.79,115.66,159.51,115.66,148.74Z"/></svg>