<svg id="Layer_1" data-name="Layer 1" xmlns="http://www.w3.org/2000/svg" viewBox="0 0 51 63.2"><defs><style>.cls-1{fill:#a9c16b;}.cls-2{fill:#fff;}</style></defs><path class="cls-1" d="M49.25,62.76c-.07.69-1.94-.14-2.58-.68C40.4,56.73,34.21,51.29,28,45.88L25.5,43.74,7.23,59.64c-1.13,1-2.21,2-3.42,2.91-1.49,1.08-3,.39-3.26-1.43a11.21,11.21,0,0,1,0-1.74V3.92C.52.35.73.14,4.39.14H46.6c3.68,0,3.9.21,3.9,3.76C50.5,3.9,49.58,59.25,49.25,62.76Z"/><polygon class="cls-2" points="24.31 29.76 21.35 32.11 24.3 29.75 24.31 29.76"/><path class="cls-2" d="M33.67,21.69a.46.46,0,0,1-.08.64L24.3,29.75l-2.59,2.08a.46.46,0,0,1-.64-.08L19,29.15l-3.15-3.94a.46.46,0,0,1,.08-.64l2.23-1.8a.46.46,0,0,1,.64.08l2.87,3.58a.46.46,0,0,0,.64.08l8.93-7.14a.46.46,0,0,1,.64.08Z"/></svg>