<svg id="Layer_1" data-name="Layer 1" xmlns="http://www.w3.org/2000/svg" viewBox="0 0 51 63.2"><defs><style>.cls-1{fill:#a5a5a5;}.cls-2{fill:#fff;}</style></defs><path class="cls-1" d="M49.25,62.76c-.07.69-1.94-.14-2.58-.68C40.4,56.73,34.21,51.29,28,45.88L25.5,43.74,7.23,59.64c-1.13,1-2.21,2-3.42,2.91-1.49,1.08-3,.39-3.26-1.43a11.21,11.21,0,0,1,0-1.74V3.92C.52.35.73.14,4.39.14H46.6c3.68,0,3.9.21,3.9,3.76C50.5,3.9,49.58,59.25,49.25,62.76Z"/><rect class="cls-2" x="23.61" y="16.96" width="3.78" height="15.69"/><rect class="cls-2" x="23.61" y="17.14" width="3.78" height="15.33" transform="translate(0.7 50.3) rotate(-90)"/></svg>