<?xml version="1.0" encoding="utf-8"?>
<!-- Generator: Adobe Illustrator 24.1.2, SVG Export Plug-In . SVG Version: 6.00 Build 0)  -->
<svg version="1.1" id="Layer_1" xmlns="http://www.w3.org/2000/svg" xmlns:xlink="http://www.w3.org/1999/xlink" x="0px" y="0px"
	 viewBox="0 0 51 63.2" style="enable-background:new 0 0 51 63.2;" xml:space="preserve">
<style type="text/css">
	.st0{fill:#A5A5A5;}
	.st1{fill:#FFFFFF;}
</style>
<g>
	<path class="st0" d="M49.2,62.7c-0.1,0.7-1.9-0.1-2.6-0.7c-6.3-5.3-12.5-10.8-18.7-16.2l-2.5-2.1L7.2,59.6c-1.1,1-2.2,2-3.4,2.9
		c-1.5,1.1-3,0.4-3.3-1.4c0-0.6,0-1.2,0-1.7V3.9c0-3.6,0.2-3.8,3.8-3.8h42.2c3.7,0,3.9,0.2,3.9,3.8C50.5,3.9,49.6,59.2,49.2,62.7z"
		/>
	<rect x="23.6" y="16.9" class="st1" width="3.8" height="15.7"/>
	<rect x="17.9" y="22.9" class="st1" width="15.3" height="3.8"/>
</g>
<path class="st1" d="M-25.4,0.1h-42.2c-3.7,0-3.9,0.2-3.8,3.8v55.5c0,0.6,0,1.2,0,1.7c0.3,1.8,1.8,2.5,3.3,1.4
	c1.2-0.9,2.3-1.9,3.4-2.9l18.3-15.9l2.5,2.1c6.2,5.4,12.4,10.9,18.7,16.2c0.6,0.5,2.5,1.4,2.6,0.7c0.3-3.5,1.3-58.9,1.3-58.9
	C-21.5,0.3-21.7,0.1-25.4,0.1z M-35.3,24.9h-8.1V33h-6.3v-8.1h-8.1v-6.3h8.1v-8.1h6.3v8.1h8.1C-35.3,18.6-35.3,24.9-35.3,24.9z"/>
<path class="st0" d="M-194.4,48.2c-0.1,0.7-1.9-0.1-2.6-0.7c-6.3-5.3-12.5-10.8-18.7-16.2l-2.5-2.1L-236.5,45c-1.1,1-2.2,2-3.4,2.9
	c-1.5,1.1-3,0.4-3.3-1.4c0-0.6,0-1.2,0-1.7v-55.5c0-3.6,0.2-3.8,3.8-3.8h42.2c3.7,0,3.9,0.2,3.9,3.8
	C-193.2-10.7-194.1,44.6-194.4,48.2z"/>
<rect x="-229.4" y="4.1" class="st1" width="22.5" height="6.3"/>
<rect x="-221.3" y="-4" class="st1" width="6.3" height="22.5"/>
<path class="st1" d="M-63.2-77.3c0-3.6-0.2-3.8-3.9-3.8h-42.2c-3.6,0-3.8,0.2-3.8,3.8v57.2c0.3,1.8,1.8,2.5,3.3,1.4
	c1.2-0.9,2.3-1.9,3.4-2.9l18.3-15.8l2.5,2.1c6.2,5.4,12.4,10.9,18.7,16.2c0.7,0.6,2.5,1.4,2.6,0.7C-64-22-63.1-77.3-63.2-77.3z
	 M-76.4-53.2h-9.1v9.1h-5.5v-9.1h-9.1v-5.4h9.1v-9.1h5.5v9.1h9.1V-53.2z"/>
<path class="st0" d="M-111.8,64.2c-0.1,0.7-1.9-0.1-2.6-0.7c-6.3-5.3-12.5-10.8-18.7-16.2l-2.5-2.1L-153.9,61c-1.1,1-2.2,2-3.4,2.9
	c-1.5,1.1-3,0.4-3.3-1.4c0-0.6,0-1.2,0-1.7V5.3c0-3.6,0.2-3.8,3.8-3.8h42.2c3.7,0,3.9,0.2,3.9,3.8C-110.6,5.3-111.5,60.6-111.8,64.2
	z"/>
<rect x="-138.4" y="14.9" class="st1" width="5.4" height="23.6"/>
<rect x="-147.5" y="24" class="st1" width="23.6" height="5.4"/>
</svg>
