<?xml version="1.0" encoding="utf-8"?>
<!-- Generator: Adobe Illustrator 24.1.2, SVG Export Plug-In . SVG Version: 6.00 Build 0)  -->
<svg version="1.1" id="Layer_1" xmlns="http://www.w3.org/2000/svg" xmlns:xlink="http://www.w3.org/1999/xlink" x="0px" y="0px"
	 viewBox="0 0 51 63.2" style="enable-background:new 0 0 51 63.2;" xml:space="preserve">
<style type="text/css">
	.st0{fill:#A5A5A5;}
	.st1{fill:#FFFFFF;}
</style>
<path class="st0" d="M51.1-17.9c-0.1,0.7-1.9-0.1-2.6-0.7c-6.3-5.3-12.5-10.8-18.7-16.2l-2.5-2.1L9.1-21c-1.1,1-2.2,2-3.4,2.9
	c-1.5,1.1-3,0.4-3.3-1.4c0-0.6,0-1.2,0-1.7v-55.5c0-3.6,0.2-3.8,3.8-3.8h42.2c3.7,0,3.9,0.2,3.9,3.8C52.4-76.7,51.5-21.4,51.1-17.9z
	"/>
<rect x="25.5" y="-63.7" class="st1" width="3.8" height="15.7"/>
<rect x="19.7" y="-57.7" class="st1" width="15.3" height="3.8"/>
<path class="st1" d="M46.6,0.1H4.4c-3.7,0-3.9,0.2-3.8,3.8v55.5c0,0.6,0,1.2,0,1.7c0.3,1.8,1.8,2.5,3.3,1.4c1.2-0.9,2.3-1.9,3.4-2.9
	l18.3-15.9l2.5,2.1c6.2,5.4,12.4,10.9,18.7,16.2c0.6,0.5,2.5,1.4,2.6,0.7c0.3-3.5,1.3-58.9,1.3-58.9C50.5,0.3,50.3,0.1,46.6,0.1z
	 M36.7,24.9h-8.1V33h-6.3v-8.1h-8.1v-6.3h8.1v-8.1h6.3v8.1h8.1V24.9z"/>
<path class="st0" d="M-122.4,48.2c-0.1,0.7-1.9-0.1-2.6-0.7c-6.3-5.3-12.5-10.8-18.7-16.2l-2.5-2.1L-164.5,45c-1.1,1-2.2,2-3.4,2.9
	c-1.5,1.1-3,0.4-3.3-1.4c0-0.6,0-1.2,0-1.7v-55.5c0-3.6,0.2-3.8,3.8-3.8h42.2c3.7,0,3.9,0.2,3.9,3.8
	C-121.2-10.7-122.1,44.6-122.4,48.2z"/>
<rect x="-157.4" y="4.1" class="st1" width="22.5" height="6.3"/>
<rect x="-149.3" y="-4" class="st1" width="6.3" height="22.5"/>
</svg>
